***************************************************************
 
http://www.torrentforce.org/imghost/3/greyshadow_tfbanner.png

***************************************************************
 
http://www.torrentforce.org/imghost/4/greyshadow_badteacher.jpg

***************************************************************

FILM TITLE: Bad Teacher (2011)

***************************************************************

Genre: Comedy 

Rated R for sexual content, nudity, language and some drug use  

Release: 17 June 2011 (UK)

Director: Jake Kasdan

Writer: Gene Stupnitsky, Lee Eisenberg

Stars: Cameron Diaz, Jason Segel and Justin Timberlake 

Country: USA

Language: English

Plot:
A comedy centered around a foul-mouthed, junior high teacher who, 
after being dumped by her sugar daddy, begins to woo a colleague 
-- a move that pits her against a well-loved teacher.

IMDB Rating: 5.8/10 from 29,740 users
 
http://www.imdb.com/title/tt1284575/ 

****************************************************************
 
http://www.torrentforce.org/imghost/4/greyshadow_badteacherx2641.png 
http://www.torrentforce.org/imghost/4/greyshadow_badteacherx2642.png 
http://www.torrentforce.org/imghost/4/greyshadow_badteacherx2643.png 
http://www.torrentforce.org/imghost/4/greyshadow_badteacherx2644.png

****************************************************************

[IMG]http://www.torrentforce.org/imghost/2/greyshadow_mediainfo.png[/IMG]
General
Complete name                    : Bad Teacher 2011 720p BDRip x264 aac (mp4) [TFRG].mp4
Format                           : MPEG-4
Format profile                   : Base Media
Codec ID                         : isom
File size                        : 2.49 GiB
Duration                         : 1h 37mn
Overall bit rate                 : 3650 Kbps
Encoded date                     : UTC 2011-10-05 03:19:30
Tagged date                      : UTC 2011-10-05 03:19:30

Video
ID                               : 1
Format                           : AVC
Format/Info                      : Advanced Video Codec
Format profile                   : High@L4.1
Format settings, CABAC           : Yes
Format settings, ReFrames        : 9 frames
Codec ID                         : avc1
Codec ID/Info                    : Advanced Video Coding
Duration                         : 1h 37mn
Bit rate                         : 3200 Kbps
Maximum bit rate                 : 21.5 Mbps
Width                            : 1280 pixels
Height                           : 688 pixels
Display aspect ratio             : 1.860
Frame rate mode                  : Constant
Frame rate                       : 23.976 fps
Color space                      : YUV
Chroma subsampling               : 4:2:0
Bit depth                        : 8 bits
Scan type                        : Progressive
Bits/(Pixel*Frame)               : 0.152
Stream size                      : 2.18 GiB (88%)
Writing library                  : x264 core 118 r2085 8a62835
Encoded date                     : UTC 2011-10-03 21:32:56
Tagged date                      : UTC 2011-10-05 03:21:07
Color primaries                  : BT.709-5, BT.1361, IEC 61966-2-4, SMPTE RP177
Transfer characteristics         : BT.709-5, BT.1361
Matrix coefficients              : BT.709-5, BT.1361, IEC 61966-2-4 709, SMPTE RP177

Audio
ID                               : 2
Format                           : AAC
Format/Info                      : Advanced Audio Codec
Format profile                   : LC
Codec ID                         : 40
Duration                         : 1h 37mn
Bit rate mode                    : Variable
Bit rate                         : 449 Kbps
Maximum bit rate                 : 462 Kbps
Channel(s)                       : 6 channels
Channel positions                : Front: L C R, Side: L R, LFE
Sampling rate                    : 48.0 KHz
Compression mode                 : Lossy
Stream size                      : 313 MiB (12%)
Language                         : English
Encoded date                     : UTC 2011-10-05 03:20:58
Tagged date                      : UTC 2011-10-05 03:21:07

****************************************************************

Video Source: Bad.Teacher.2011.CEE.BluRay.1080p.AVC.DTS-HD.MA5.1-CHDBits (41.8GB)

Thanks: (chdbits.org)

****************************************************************

I provide a small sample, so please download this to check your 
compatibility first if you are unsure.

****************************************************************

A big thanks to all the sites out there who care and share and
who make it possible for you to download this torrent for free.

Greetz to Westy, Ripwyn, mustang, noir, Blackjesus, MXMG, The Stig 
and all the other outstanding members of our community of file 
sharers and a special mention to our friends at 1337x.

****************************************************************